PathFileType	4	(X/Y/Z)	1H_rest_slow_right.trc
DataRate	CameraRate	NumFrames	NumMarkers	Units	OrigDataRate	OrigDataStartFrame	OrigNumFrames
250.00	250.00	7	18	mm	250.00	10592	21182
Frame#	Time	c7	r_should	l_should	clavicle	r_upa	r_elb_l	r_elb_m	r_low	r_wri_l	r_wri_m	r_met	l_upa	l_elb_l	l_elb_m	l_low	l_wri_l	l_wri_m	l_met
	X1	Y1	Z1	X2	Y2	Z2	X3	Y3	Z3	X4	Y4	Z4	X5	Y5	Z5	X6	Y6	Z6	X7	Y7	Z7	X8	Y8	Z8	X9	Y9	Z9	X10	Y10	Z10	X11	Y11	Z11	X12	Y12	Z12	X13	Y13	Z13	X14	Y14	Z14	X15	Y15	Z15	X16	Y16	Z16	X17	Y17	Z17	X18	Y18	Z18
10592	42.36400	618.82452	1418.63110	297.11560	683.53308	1357.65076	437.53857	647.16504	1377.13721	120.42750	748.04260	1283.23560	264.13797	692.68103	1145.42175	492.64188	693.47833	1053.83032	512.47058	678.59271	1017.44244	423.28552	732.52985	866.79987	522.26495	755.77679	795.81177	503.73309	681.62402	786.03198	511.89984	767.50781	714.51227	544.42151	632.44781	1191.91833	36.97557	640.44061	1083.91003	21.77782	589.46619	1047.25000	85.07848	677.32697	919.39172	22.36354	704.06049	845.95074	56.51322	640.70245	828.17914	23.55056	731.15863	757.30334	27.69596
10593	42.36800	618.81934	1418.62585	297.12894	683.52380	1357.63916	437.54172	647.15613	1377.13367	120.43501	748.03394	1283.23083	264.15067	692.67358	1145.41174	492.64789	693.47656	1053.82544	512.47638	678.59827	1017.43555	423.28979	732.51654	866.78741	522.27814	755.76434	795.79877	503.74930	681.60632	786.02979	511.91138	767.48621	714.49548	544.44269	632.44513	1191.91907	36.98243	640.43860	1083.91162	21.77711	589.47058	1047.24622	85.07583	677.32397	919.38873	22.36536	704.05591	845.94617	56.51126	640.70380	828.17700	23.54038	731.15247	757.29382	27.70123
10594	42.37200	618.81506	1418.62085	297.14139	683.51660	1357.62500	437.54547	647.14520	1377.13184	120.44000	748.02588	1283.21948	264.16000	692.66882	1145.40503	492.65652	693.47180	1053.82056	512.48792	678.60938	1017.42865	423.28973	732.50433	866.77673	522.29962	755.75580	795.78436	503.76166	681.59308	786.02875	511.92068	767.47485	714.48236	544.45837	632.44116	1191.91663	36.98084	640.43390	1083.91003	21.77778	589.48120	1047.23145	85.07463	677.32202	919.37988	22.36379	704.05231	845.93866	56.51064	640.70612	828.18066	23.53129	731.14606	757.27997	27.70334
10595	42.37600	618.80975	1418.62000	297.14758	683.51428	1357.60925	437.54865	647.13757	1377.12659	120.43999	748.02264	1283.20813	264.16571	692.66699	1145.39355	492.66467	693.46802	1053.81335	512.49493	678.61774	1017.42017	423.29587	732.49963	866.76471	522.30939	755.75299	795.76807	503.77161	681.58783	786.02356	511.93005	767.46436	714.47345	544.46985	632.43140	1191.91248	36.97737	640.42987	1083.90125	21.77702	589.48218	1047.22852	85.07568	677.31665	919.37042	22.36391	704.05353	845.93146	56.50520	640.70715	828.18567	23.52332	731.14935	757.26825	27.69947
10596	42.38000	618.80304	1418.62476	297.15665	683.51111	1357.60156	437.54944	647.12665	1377.12354	120.44514	748.02075	1283.20544	264.16998	692.66638	1145.38159	492.66812	693.47162	1053.80347	512.49738	678.60968	1017.40918	423.30106	732.50330	866.75494	522.31305	755.74792	795.75714	503.78229	681.58563	786.01331	511.94189	767.46326	714.45776	544.48138	632.42047	1191.90723	36.98005	640.42535	1083.89783	21.76508	589.49298	1047.22107	85.06975	677.31824	919.36182	22.36098	704.05750	845.93213	56.49581	640.70911	828.18671	23.51360	731.15552	757.26257	27.69037
10597	42.38400	618.79547	1418.62793	297.15460	683.51532	1357.59192	437.55173	647.11481	1377.12122	120.45009	748.01733	1283.20483	264.17087	692.66595	1145.37524	492.67502	693.47552	1053.79492	512.50043	678.61053	1017.40375	423.30286	732.50922	866.74872	522.31854	755.74603	795.75299	503.79163	681.58533	786.01013	511.94693	767.45996	714.45599	544.48572	632.40686	1191.90527	36.97760	640.42102	1083.89600	21.75497	589.50201	1047.20923	85.07195	677.32111	919.36194	22.35628	704.06329	845.93042	56.48935	640.70703	828.18530	23.50742	731.16119	757.26599	27.68457
10598	42.38800	618.79395	1418.62952	297.15665	683.51300	1357.58301	437.55884	647.10773	1377.11658	120.45707	748.01428	1283.20593	264.17276	692.66211	1145.37354	492.68442	693.47424	1053.78857	512.50745	678.61060	1017.39166	423.30914	732.51343	866.73883	522.32935	755.73889	795.75012	503.80505	681.58508	786.01068	511.95181	767.45160	714.45312	544.49182	632.39532	1191.90625	36.97875	640.41547	1083.88940	21.75017	589.50195	1047.20251	85.07452	677.32501	919.36169	22.35001	704.07001	845.93536	56.48111	640.71014	828.18335	23.50271	731.16766	757.27246	27.67943
